:SAMPLES-PER-SECOND 30
:FULLY-SPECIFIED
:DEGREES
371
root  -7.50708 34.4125 -0.926531 8.47893 61.9903 0.544422
LeftUpLeg  -15.8206 13.0664 -2.15961
LeftLeg  7.95551 9.00636 0.669334
LeftFoot  7.34746 -0.0751334 1.17013
LeftToes  -12.9359 6.91067e-007 1.07128e-007
Spine  2.53124 3.46101 -2.5192
Spine1  4.83585 7.02181 -4.82946
RightShoulder  0.0144919 10.4083 -7.28493
RightArm  42.5028 11.3894 87.3426
RightForeArm  73.5497 79.1238 68.0007
RightHand  0.163233 -1.53582 -11.7132
LeftShoulder1  0.0283905 -10.1273 -2.48229
LeftArm  3.55697 -5.85001 -81.1574
LeftForeArm  14.5851 -20.3004 -3.73259
LeftHand  -0.541809 13.7752 -4.8507
HEad  -7.91671 52.5869 -13.3481
RightUpLeg  -8.74251 -16.1586 3.42362
RightLeg  8.26141 -8.59754 -0.682634
RightFoot  0.326365 0.00873079 -0.0408907
RightToes  -24.4731 -0.107772 -0.211778
372
root  -7.23897 34.4275 -0.919664 7.42115 62.1406 -0.0363869
LeftUpLeg  -14.9899 12.5885 -1.80958
LeftLeg  8.32323 9.31406 0.751857
LeftFoot  6.73584 -0.0656996 1.11636
LeftToes  -12.5197 6.91067e-007 1.07128e-007
Spine  2.53982 3.70154 -2.73062
Spine1  4.827 7.53354 -5.26275
RightShoulder  0.0169263 10.2767 -7.91391
RightArm  42.927 11.8988 88.4778
RightForeArm  82.5028 79.6342 77.0173
RightHand  0.320631 -2.71403 -13.0714
LeftShoulder1  0.0242512 -10.255 -2.04506
LeftArm  1.78963 -5.86584 -80.8614
LeftForeArm  11.351 -20.0417 -3.67916
LeftHand  -0.519785 13.9394 -4.61766
HEad  -5.39956 47.6672 -9.10424
RightUpLeg  -8.51671 -15.763 3.19711
RightLeg  9.91668 -9.1212 -0.988584
RightFoot  -0.0408297 0.00472575 0.0194928
RightToes  -25.3987 -0.113553 -0.218748
373
root  -6.97709 34.4367 -0.926037 6.18788 62.3812 -0.839594
LeftUpLeg  -14.2085 12.0191 -1.38816
LeftLeg  8.69824 9.60657 0.838251
LeftFoot  6.04806 -0.0548531 1.03829
LeftToes  -12.128 6.91067e-007 1.07128e-007
Spine  2.60821 3.90653 -2.93092
Spine1  4.93383 7.9624 -5.65417
RightShoulder  0.0194811 10.2948 -8.161
RightArm  42.7814 11.8782 89.0911
RightForeArm  65.7136 78.8415 64.5272
RightHand  0.291783 -2.41424 -13.3745
LeftShoulder1  0.0228816 -10.5771 -1.68904
LeftArm  0.103885 -6.57365 -80.4948
LeftForeArm  7.87401 -18.875 -3.44537
LeftHand  -0.371496 14.2919 -3.33088
HEad  -3.2453 39.1929 -4.95245
RightUpLeg  -8.52673 -15.7164 3.0537
RightLeg  12.0264 -9.22419 -1.34344
RightFoot  -0.574199 -0.00133947 0.110373
RightToes  -26.0416 -0.117634 -0.223535
374
root  -6.74287 34.4392 -0.949046 5.19985 62.5947 -1.68567
LeftUpLeg  -13.7496 12.0178 -1.09456
LeftLeg  8.986 9.33471 0.861729
LeftFoot  5.394 -0.0426096 0.904514
LeftToes  -12.0629 6.91067e-007 1.07128e-007
Spine  2.63834 3.96068 -3.14419
Spine1  4.96526 8.09623 -6.08976
RightShoulder  0.023529 10.6865 -7.76175
RightArm  42.5907 11.522 89.0228
RightForeArm  47.3972 76.4922 47.759
RightHand  -0.193673 1.44211 -14.9946
LeftShoulder1  0.0222348 -10.1902 -1.43159
LeftArm  -0.715302 -7.47982 -80.1481
LeftForeArm  1.96844 -18.2699 -3.32096
LeftHand  -0.0161824 15.0302 -0.492392
HEad  -2.26228 28.1806 -1.6955
RightUpLeg  -9.08807 -16.0461 2.95175
RightLeg  14.5921 -8.70005 -1.66727
RightFoot  -1.00931 -0.00604502 0.177461
RightToes  -27.9061 -0.129771 -0.237153
375
root  -6.54154 34.4338 -0.999069 4.33542 62.9018 -2.34658
LeftUpLeg  -13.3033 12.0843 -0.939367
LeftLeg  9.18022 8.95077 0.857004
LeftFoot  4.78514 -0.0323983 0.775383
LeftToes  -11.6421 6.91067e-007 1.07128e-007
Spine  2.64919 3.90967 -3.34227
Spine1  4.95598 8.02592 -6.50798
RightShoulder  0.0297996 11.1645 -7.08551
RightArm  42.3943 11.0894 88.8734
RightForeArm  38.7641 72.6804 34.7271
RightHand  -0.490957 3.11515 -17.5748
LeftShoulder1  0.0222347 -9.56489 -0.959952
LeftArm  -2.59165 -7.65459 -80.2856
LeftForeArm  -2.56146 -18.8871 -3.43613
LeftHand  0.389722 15.8994 2.41927
HEad  -1.61561 16.4809 0.902638
RightUpLeg  -10.0364 -16.9402 2.70416
RightLeg  17.8944 -7.52914 -1.89939
RightFoot  -1.49225 -0.00996853 0.229755
RightToes  -30.0518 -0.144278 -0.252326
376
root  -6.36891 34.4191 -1.06755 3.4534 63.2169 -2.96366
LeftUpLeg  -12.8195 12.1502 -0.826092
LeftLeg  9.27206 8.59945 0.837435
LeftFoot  4.23695 -0.0242172 0.664131
LeftToes  -11.3385 6.91067e-007 1.07128e-007
Spine  2.72563 3.80723 -3.51095
Spine1  5.07755 7.84395 -6.84754
RightShoulder  0.0365559 11.4956 -6.46471
RightArm  42.1159 10.9395 89.2058
RightForeArm  32.2486 67.4835 25.3371
RightHand  -0.62775 3.5007 -19.9934
LeftShoulder1  0.0228048 -9.64715 -0.723234
LeftArm  -4.60229 -7.66521 -80.02
LeftForeArm  -7.33296 -19.0872 -3.46815
LeftHand  0.603434 16.0859 3.8969
HEad  -1.48804 5.34269 2.83756
RightUpLeg  -11.3503 -17.9755 2.37223
RightLeg  21.9078 -6.09364 -2.003
RightFoot  -1.71944 -0.0102931 0.225218
RightToes  -32.6899 -0.162876 -0.27022
